<?xml version="1.0" standalone="no"?>
<!DOCTYPE svg PUBLIC "-//W3C//DTD SVG 20010904//EN"
 "http://www.w3.org/TR/2001/REC-SVG-20010904/DTD/svg10.dtd">
<svg version="1.0" xmlns="http://www.w3.org/2000/svg"
 width="900.000000pt" height="512.000000pt" viewBox="0 0 900.000000 512.000000"
 preserveAspectRatio="xMidYMid meet">

<g transform="translate(0.000000,512.000000) scale(0.100000,-0.100000)"
fill="#000000" stroke="none">
<path d="M4180 5110 c-230 -27 -448 -130 -604 -286 -188 -188 -298 -447 -341
-799 -19 -154 -16 -511 5 -655 77 -527 268 -927 589 -1232 132 -125 259 -215
421 -296 174 -86 197 -88 352 -18 285 127 520 305 701 529 208 257 329 534
394 902 25 146 25 616 0 765 -104 610 -413 971 -921 1075 -89 18 -483 28 -596
15z m530 -201 c175 -28 353 -116 474 -234 172 -168 274 -394 322 -715 25 -161
25 -494 1 -650 -76 -491 -299 -870 -666 -1133 -96 -68 -267 -161 -356 -192
l-50 -17 -78 36 c-172 78 -383 241 -509 392 -266 320 -406 721 -433 1239 -6
122 7 346 26 465 28 166 102 363 179 475 112 163 299 284 510 329 79 18 483
21 580 5z"/>
<path d="M5544 2200 c-51 -21 -69 -87 -37 -141 15 -25 33 -34 103 -55 233 -70
403 -138 587 -234 250 -131 432 -267 570 -429 l63 -74 0 -534 0 -533 -2330 0
-2330 0 0 534 0 534 68 78 c78 91 231 222 349 300 189 124 487 262 727 334
152 46 176 64 176 127 0 34 -6 50 -26 70 -23 23 -31 25 -82 20 -102 -10 -416
-124 -612 -222 -326 -163 -579 -359 -738 -569 l-52 -69 0 -629 c0 -693 -2
-675 61 -697 45 -16 4873 -16 4918 0 63 22 61 4 61 698 l0 630 -62 78 c-256
323 -665 574 -1222 752 -132 42 -156 46 -192 31z"/>
</g>
</svg>
